<?xml version="1.0" encoding="UTF-8"?>
<svg width="150" height="150" viewBox="0 0 150 150" xmlns="http://www.w3.org/2000/svg">
  <style>
    .primary { fill: #4c6fff; }
    .secondary { fill: #ffde59; }
  </style>
  <!-- Sitting figure -->
  <g transform="translate(30, 30)">
    <!-- Body -->
    <path class="primary" d="M40 30 C40 20, 60 20, 60 30 L60 70 C60 80, 40 80, 40 70 Z"/>
    <!-- Head -->
    <circle class="primary" cx="50" cy="20" r="15"/>
    <!-- Arms -->
    <path class="primary" d="M45 35 L25 50 L30 55 L45 45"/>
    <path class="primary" d="M55 35 L75 50 L70 55 L55 45"/>
    <!-- Legs -->
    <path class="primary" d="M45 70 L35 90 L40 95 L50 80"/>
    <path class="primary" d="M55 70 L65 90 L60 95 L50 80"/>
    <!-- Laptop -->
    <rect class="secondary" x="35" y="45" width="30" height="20" rx="2"/>
  </g>
</svg>
